<svg xmlns="http://www.w3.org/2000/svg" viewBox="0 0 64 64" fill="none">
  <defs>
    <linearGradient id="g" x1="0" y1="0" x2="64" y2="64" gradientUnits="userSpaceOnUse">
      <stop offset="0%" stop-color="#7c3aed"/>
      <stop offset="100%" stop-color="#14b8a6"/>
    </linearGradient>
  </defs>
  <circle cx="32" cy="32" r="30" fill="url(#g)" opacity="0.15"/>
  <circle cx="32" cy="32" r="20" fill="url(#g)" opacity="0.3"/>
  <path d="M32 18c-2.2 0-4 1.8-4 4v10c0 2.2 1.8 4 4 4s4-1.8 4-4V22c0-2.2-1.8-4-4-4z" fill="url(#g)"/>
  <path d="M42 30v2c0 5.5-4.5 10-10 10s-10-4.5-10-10v-2h-2v2c0 6.3 4.8 11.4 11 11.9V48h-4v2h10v-2h-4v-4.1c6.2-.5 11-5.6 11-11.9v-2h-2z" fill="url(#g)"/>
</svg>
